<svg xmlns="http://www.w3.org/2000/svg" xmlns:xlink="http://www.w3.org/1999/xlink" width="242" height="265.948" viewBox="0 0 242 265.948">
  <defs>
    <filter id="Path_346" x="0" y="23.948" width="242" height="242" filterUnits="userSpaceOnUse">
      <feOffset dy="6" input="SourceAlpha"/>
      <feGaussianBlur stdDeviation="6" result="blur"/>
      <feFlood flood-opacity="0.129"/>
      <feComposite operator="in" in2="blur"/>
      <feComposite in="SourceGraphic"/>
    </filter>
    <clipPath id="clip-path">
      <path id="Path_332" data-name="Path 332" d="M81.5-33C236.5-49.5,208,42.615,208,99.5S159.885,206,103,206A103,103,0,0,1,0,103C0,46.115-73.5-16.5,81.5-33Z" transform="translate(85 1056)" fill="#fff"/>
    </clipPath>
  </defs>
  <g id="Group_81" data-name="Group 81" transform="translate(-67 -957.052)">
    <g transform="matrix(1, 0, 0, 1, 67, 957.05)" filter="url(#Path_346)">
      <path id="Path_346-2" data-name="Path 346" d="M103,0A103,103,0,1,1,0,103,103,103,0,0,1,103,0Z" transform="translate(18 35.95)" fill="#bef9f0"/>
    </g>
    <g id="Mask_Group_4" data-name="Mask Group 4" transform="translate(0 -64)" clip-path="url(#clip-path)">
      <g id="Group_54" data-name="Group 54" transform="translate(131.344 265)">
        <g id="Group_53" data-name="Group 53" transform="translate(-36 784)">
          <g id="Group_46" data-name="Group 46" transform="translate(157.685 157.03)">
            <path id="Path_201" data-name="Path 201" d="M410.333,415.18c.688-8.256,9.574-14.337,15.824-10.32,7.013,4.508,2.064,16.373-6.467,17.75C413.645,423.586,410.471,419.308,410.333,415.18Z" transform="translate(-409.507 -403.591)" fill="#3c9987"/>
            <path id="Path_202" data-name="Path 202" d="M408.333,435.2a86.142,86.142,0,0,0,9.907-10.87l.826.826s-6.6,9.632-8.531,12.246Z" transform="translate(-408.333 -415.771)" fill="#3c442d"/>
            <path id="Path_203" data-name="Path 203" d="M426.542,430.864a10.224,10.224,0,0,1,4.3-.881v.661A15.147,15.147,0,0,0,425,432.737Z" transform="translate(-418.12 -419.084)" fill="#3c442d"/>
          </g>
          <path id="Path_204" data-name="Path 204" d="M421.4,29.032c-.9-3.43-7.916-3.009-11.785-.166-.958-1.605-2.9-5.537-10.564-3.981-5.2,1.057-10.57,4.391-6.55,8.943-3.3.474-8.654,2.773-7.6,5.49.915,2.353,4.484,1.487,6.326.824-.81,1.474-.579,4.143,6.041,3.315,4.125-.516,6.925-2.137,8-4.021.913,1.369,4.523,1.148,7.968-.322,3.618-1.544,5.1-4.866,3.186-5.677C419.517,32.627,421.9,30.953,421.4,29.032Z" transform="translate(-236.807 -23.969)" fill="#98d1ce" opacity="0.6"/>
          <path id="Path_205" data-name="Path 205" d="M66.767,192.852s2.023-1.4,1.54-3.355c-.65-2.632-5.284-5.305-13.662-1.963-7.341,2.929-9.972,7.538-6.046,10.679a14.941,14.941,0,0,0-10.3,2.056c-4.692,2.835-5.087,7.6,1.116,7.366,0,0-6.216,1.393-9.894,4.475-2.265,1.9-7.078,7.229,2.748,8.087,9.179.8,20.964-3.926,21.514-11.228a11.577,11.577,0,0,0,7.774-2.2c2.043-1.372,3.219-3.219,1.884-4.633,0,0,12-3.767,11.448-8.633C74.443,189.625,66.767,192.852,66.767,192.852Z" transform="translate(-26.328 -118.772)" fill="#fff" opacity="0.6"/>
          <g id="Group_47" data-name="Group 47" transform="translate(17.446 0)">
            <path id="Path_206" data-name="Path 206" d="M351.291,116.037c2.235-2.875-.457-12.425-7.659-13.574-10.307-1.645-16.2,3.6-21.834,11.139s-12.083,8.749-12.968,8.093" transform="translate(-209.664 -69.556)" fill="none" stroke="#fbef70" stroke-miterlimit="10" stroke-width="1.098"/>
            <path id="Path_207" data-name="Path 207" d="M202.909,36.373s-4.624-7.959,2.146-11.743c8.186-4.575,10.393,2.938,11.662,4.722,1.956,2.751,6.989.251,6.989.251l-2.178,4.153s-5.549,1.569-7.449-1.418-1.692-6.765-7.124-4.719C202.253,29.388,202.32,34.286,202.909,36.373Z" transform="translate(-146.561 -23.174)" fill="#ff64a3"/>
            <path id="Path_208" data-name="Path 208" d="M125.3,54.158C104.18,60.959,68.788,55.7,68.788,55.7s28.4,15.232,38.252,19.274C110.957,70.305,121.053,58.934,125.3,54.158Z" transform="translate(-68.707 -41.368)" fill="#ff3976"/>
            <path id="Path_209" data-name="Path 209" d="M179.728,54.152c-.07.023-.142.044-.213.066l.2-.063c-4.251,4.776-14.347,16.147-18.264,20.813.484.2.952.387,1.389.555,19.633,7.543,45.776,14.691,57.71,17.6,1.846.413,2.51.585,2.51.585C186.7,77.719,179.728,54.152,179.728,54.152Z" transform="translate(-123.124 -41.365)" fill="#345bbf"/>
            <path id="Path_210" data-name="Path 210" d="M198.267,123.311c-11.517-2.628-40.045-10.431-60.206-18.177-.437-.168-.906-.356-1.389-.555-.533.635-.953,1.147-1.227,1.5-2.211,2.851-10.883,12.466-16.2,18.164C148.776,116.757,189.228,121.928,198.267,123.311Z" transform="translate(-98.339 -70.976)" fill="#f99462"/>
            <path id="Path_211" data-name="Path 211" d="M107.02,77.163c-9.558-3.922-28.73-14.25-38.266-19.272C81.779,74.5,89.573,96.833,89.573,96.833l.025-.006c5.313-5.7,13.984-15.313,16.2-18.164C106.067,78.31,106.487,77.8,107.02,77.163Z" transform="translate(-68.688 -43.56)" fill="#fff46c"/>
            <path id="Path_212" data-name="Path 212" d="M106.4,161.394c.347,5.277,8.119,2.4,9.564,6.167s-5.428,5.873-5.428,5.873l4.362,1.517c5.235-3.21,6.455-6.142,5.388-8.647-1.256-2.95-5.881-2.757-9.392-3.865-4.724-1.49.365-9,1.421-10.673C112.319,151.767,106.135,157.313,106.4,161.394Z" transform="translate(-90.791 -98.686)" fill="#ff64a3"/>
            <path id="Path_213" data-name="Path 213" d="M154.706,54.158s-28.661,32.856-35.848,40.731" transform="translate(-98.109 -41.368)" fill="none" stroke="#4d4e4d" stroke-linecap="round" stroke-miterlimit="10" stroke-width="1.098"/>
            <path id="Path_214" data-name="Path 214" d="M167.677,95.672c-9.788-2.176-41.566-10.993-60.657-18.509-9.854-3.88-38.266-19.272-38.266-19.272" transform="translate(-68.688 -43.56)" fill="none" stroke="#4d4e4d" stroke-linecap="round" stroke-miterlimit="10" stroke-width="1.098"/>
            <path id="Path_215" data-name="Path 215" d="M154.557,54.413l-21.41,28.529-14.2,12.042" transform="translate(-98.159 -41.518)" fill="none" stroke="#fff" stroke-linecap="round" stroke-linejoin="round" stroke-width="1.098"/>
            <path id="Path_216" data-name="Path 216" d="M68.836,58.105s30.638,21.656,34.888,27c0,0,58.492,9.438,63.705,10.711" transform="translate(-68.736 -43.686)" fill="none" stroke="#fff" stroke-linecap="round" stroke-linejoin="round" stroke-width="1.098"/>
            <path id="Path_217" data-name="Path 217" d="M275.807,234.477c5.779-5.366,3.715-9.288-.6-11.49-18.633-9.5-30.974-16.373-30.355-30.614.719-16.542,11.244-20.766,6.239-32.439-7.065-16.476-33.689-9.046-66.949-6.335-41.659,3.4-31.427-30.2-31.427-30.2" transform="translate(-117.337 -82.025)" fill="none" stroke="#fff" stroke-miterlimit="10" stroke-width="1.193"/>
            <path id="Path_218" data-name="Path 218" d="M319.671,129.424s3.2-2.089,3.66-3.083c0,0,1.319,5.139,1.157,5.676Z" transform="translate(-216.03 -83.755)" fill="#ff64a3"/>
            <path id="Path_219" data-name="Path 219" d="M334.56,112.935s2.932-1.952,3.691-2.661c0,0,1.252,4.8,1.081,5.336Z" transform="translate(-224.773 -74.321)" fill="#ff64a3"/>
            <path id="Path_220" data-name="Path 220" d="M357.89,95.3s3.5.279,4.4-.348c0,0-1.141,4.636-1.552,5.018Z" transform="translate(-238.473 -65.325)" fill="#ff64a3"/>
            <path id="Path_221" data-name="Path 221" d="M330.614,144.788s3.591-2.942,4.649-3.223a30.392,30.392,0,0,0-4.445-1.461Z" transform="translate(-222.456 -91.835)" fill="#ff64a3"/>
            <path id="Path_222" data-name="Path 222" d="M346.5,127.114s2.929-2.509,3.731-3.17a27.561,27.561,0,0,0-4.339-1.2Z" transform="translate(-231.429 -81.639)" fill="#ff64a3"/>
            <path id="Path_223" data-name="Path 223" d="M362.6,112.34a10.218,10.218,0,0,0,4.788-1.5,44.459,44.459,0,0,0-3.944-3.9Z" transform="translate(-241.239 -72.36)" fill="#ff64a3"/>
            <path id="Path_224" data-name="Path 224" d="M204.974,54.014s.121.348.416.314" transform="translate(-148.678 -41.284)" fill="none" stroke="#fff" stroke-linecap="round" stroke-linejoin="round" stroke-width="0.22"/>
            <path id="Path_225" data-name="Path 225" d="M118.7,151.865a.33.33,0,0,0,.447.331" transform="translate(-98.02 -98.744)" fill="none" stroke="#fff" stroke-linecap="round" stroke-linejoin="round" stroke-width="0.22"/>
            <path id="Path_226" data-name="Path 226" d="M68.856,57.46a.414.414,0,0,0-.259.444" transform="translate(-68.593 -43.307)" fill="none" stroke="#fff" stroke-linecap="round" stroke-linejoin="round" stroke-width="0.22"/>
            <path id="Path_227" data-name="Path 227" d="M301.017,137.608s3.5.309,4.4-.312c0,0-1.179,4.627-1.593,5.005Z" transform="translate(-205.076 -90.188)" fill="#ff64a3"/>
            <path id="Path_228" data-name="Path 228" d="M302.9,154.469a16.869,16.869,0,0,0,5.113-.805,45.98,45.98,0,0,0-3.088-4.276Z" transform="translate(-206.181 -97.288)" fill="#ff64a3"/>
            <path id="Path_229" data-name="Path 229" d="M149.637,123.546c.281,1.911-.739,4.758-2.006,4.249C145.989,127.135,148.451,124.416,149.637,123.546Z" transform="translate(-114.684 -82.114)" fill="none" stroke="#fff" stroke-miterlimit="10" stroke-width="0.795"/>
            <path id="Path_230" data-name="Path 230" d="M153.32,123.52c1.571.319,3.5,1.979,2.745,2.876C155.083,127.559,153.661,124.747,153.32,123.52Z" transform="translate(-118.346 -82.099)" fill="none" stroke="#fff" stroke-miterlimit="10" stroke-width="0.677"/>
          </g>
          <g id="Group_48" data-name="Group 48" transform="translate(4.704 141.299)">
            <path id="Path_231" data-name="Path 231" d="M68.4,381.835a12.356,12.356,0,0,0,1.926-6.738c-.117-4.731-3.685-10.354-13.789-9.534-10.05.816-19.634,12.7-14.551,19.726,0,0-7.215,6.42-2.867,12.015,4.221,5.432,13.032,3.016,17.243.383,3.665-2.291,5.324-2.171,8.716-4.019C70.532,390.694,76.912,382.476,68.4,381.835Z" transform="translate(-37.724 -365.482)" fill="#35725d"/>
            <path id="Path_232" data-name="Path 232" d="M88.653,427.353a56.811,56.811,0,0,1-4.955-8.847c-3.169-7.2-3.708-9.759-3.708-9.759s-.293,1.073-.878,1.366c0,0,3.221,7.416,2.245,9.173-.564,1.015-3.077-3.112-3.123-3.611,0,0-.2,1.074-.586,1.366,0,0,4.782,4.294,8.2,13.565A3.82,3.82,0,0,0,88.653,427.353Z" transform="translate(-61.167 -390.888)" fill="#3c442d"/>
          </g>
          <g id="Group_49" data-name="Group 49" transform="translate(136.49 141.082)">
            <path id="Path_233" data-name="Path 233" d="M377.446,378.149s3.729-7.736-5-12.087c-7.211-3.594-12,2.286-14.513,7.537-2.41,5.036-.109,11.752,5.721,13.2S373.969,387.039,377.446,378.149Z" transform="translate(-356.985 -364.957)" fill="#287264"/>
            <path id="Path_234" data-name="Path 234" d="M383.934,394.262c4.215,2.073,11.915,2.791,15.74-7.864,2.183-6.08.525-12.372-5.426-14.9-4.877-2.071-12.426-.164-15.407,7.057C376.266,384.794,376.928,390.817,383.934,394.262Z" transform="translate(-369.008 -368.337)" fill="#287264"/>
            <path id="Path_235" data-name="Path 235" d="M374.961,413.421s3.018-7.512,5.213-10.67c3.55-5.108,5.98-6.687,5.98-6.687s-2.829.78-7.892,7.539l1.051-4.61-.511-1.347a39.584,39.584,0,0,1-6.057,14.6Z" transform="translate(-366.24 -383.223)" fill="#3c442d"/>
          </g>
          <g id="Group_51" data-name="Group 51" transform="translate(31.61 83.663)">
            <path id="Path_236" data-name="Path 236" d="M170.715,398.925a2.513,2.513,0,0,0-2.19-.648,7.183,7.183,0,0,0-2.563.645c-.087.149,0,.674,1.893.655s2.864-.4,2.868-.627" transform="translate(-139.921 -327.085)" fill="#1c273a"/>
            <path id="Path_237" data-name="Path 237" d="M167.488,398.324l-.3,1.565,3.161-.717a.492.492,0,0,1-.4-.6,1.522,1.522,0,0,1,.183-.719A14.259,14.259,0,0,0,167.488,398.324Z" transform="translate(-140.652 -326.852)" fill="#e6e5e5"/>
            <path id="Path_238" data-name="Path 238" d="M130.189,239.735c-4.146.633-12.833,3.173-13.362,16.253-.513,12.7-.058,19.928-4.1,23.38-2.969,2.538-5.477,1.808-6.832.1,0,0,.894,6.6,7.58,7.44,9.6,1.2,31.217-7.345,33.454-25.177.949-7.561-.17-10.734-2.165-14.5C142.728,243.37,136.1,238.833,130.189,239.735Z" transform="translate(-104.664 -233.937)" fill="#564032"/>
            <path id="Path_239" data-name="Path 239" d="M148.334,243.515c-6.884,1.237-13.035,7.106-9.745,20.243a14.381,14.381,0,0,0,14.879,11.211c3.758-.331,14.525-6.515,10.921-20.9A13.631,13.631,0,0,0,148.334,243.515Z" transform="translate(-123.324 -236.085)" fill="#ffd8bd"/>
            <path id="Path_240" data-name="Path 240" d="M143.768,245.7a22.92,22.92,0,0,1-4.732,14.961c-.809,1-.812,2.014-.554,4.925a17.314,17.314,0,0,1-1.278-6.061C136.93,255.471,137.4,249.682,143.768,245.7Z" transform="translate(-123.013 -237.509)" fill="#564032"/>
            <path id="Path_241" data-name="Path 241" d="M177.829,243.38A70.5,70.5,0,0,0,184.5,250.4c2.961,2.562,3.907,4.546,4.095,6.855a15.53,15.53,0,0,0-3.584-10.121C181.4,243.042,177.829,243.38,177.829,243.38Z" transform="translate(-146.902 -236.142)" fill="#564032"/>
            <path id="Path_242" data-name="Path 242" d="M133.552,289.037s-1.775-2.424-3.493-.777c-1.349,1.294-.214,3.788,1.17,5.045,1.818,1.652,4.065,1.37,4.376.6" transform="translate(-118.496 -262.163)" fill="#ffd8bd"/>
            <path id="Path_243" data-name="Path 243" d="M202.9,276.611s.583-2.85,2.437-1.765c1.441.843,1.242,3.71.463,5.657-.9,2.255-2.51,2.143-3.054,1.858" transform="translate(-161.533 -254.478)" fill="#ffd8bd"/>
            <path id="Path_244" data-name="Path 244" d="M140.017,312.071c-.4-.167-1.626.686-2.457,2.7-.7,1.694-.565,3.926,0,4.123.516.182,1.538.035,2.766-3.5C140.955,313.564,140.417,312.238,140.017,312.071Z" transform="translate(-122.976 -276.47)" fill="#b24287"/>
            <path id="Path_245" data-name="Path 245" d="M203.5,298.767c-.938,1-1.208,3.653-.348,5.27s2.712,2.075,3.508,1.249c.38-.393.968-2.22-.55-4.871C205.152,298.738,203.8,298.45,203.5,298.767Z" transform="translate(-161.469 -268.603)" fill="#b24287"/>
            <path id="Path_246" data-name="Path 246" d="M147.084,278.639a47.582,47.582,0,0,0,5.71-7.225c2.919-4.95,5.031-11.719,4.686-16.471a34.092,34.092,0,0,0-4.128-13.245l-2.854.534s3.367,5.078,2.006,15.344c-1.478,11.143-9.085,16.144-14.975,16.458a23.36,23.36,0,0,1-12.644-2.769c-3.188-1.89-6.383-3.243-11.016-12.279l-2.646.723c1.656,11.737,9.4,15.832,11.844,17.105a24.575,24.575,0,0,0,6.837,1.756" transform="translate(-107.79 -235.158)" fill="#ffd8bd"/>
            <path id="Path_247" data-name="Path 247" d="M166.512,306.062c-1.249-.393-2.136-3.587-1.068-6.507a22.518,22.518,0,0,1-4.117,5.009,13.2,13.2,0,0,1-7.956,3.326c-7,.365-10.506-1.479-12.73-3.185a5.06,5.06,0,0,1,.044,4.122c-.82,2.141-1.625,2.793-2.44,2.717s5.613,1.006,5.613,1.006l-2.18,8.1a22.5,22.5,0,0,0,8.95,3.105c6.524.672,9.435.362,11.228-.337a38.6,38.6,0,0,0,1.212-10.915s4.331-3.725,5.866-6.8A3.183,3.183,0,0,1,166.512,306.062Z" transform="translate(-123.616 -269.132)" fill="#ff7bc0"/>
            <path id="Path_248" data-name="Path 248" d="M146.961,375.609s-.544,2.576.5,3.043c1.65.736,3.605-2.511,3.883-4,.348-1.874.366-3.064-.525-3.278S147.434,372.466,146.961,375.609Z" transform="translate(-128.693 -311.29)" fill="#ff7bc0"/>
            <path id="Path_249" data-name="Path 249" d="M158.846,282.7s.805,2.928,3.218,3.677a6.517,6.517,0,0,0,4.911-.551s-2.3,7.867-6.686,6.364C156.755,290.979,158.591,283.978,158.846,282.7Z" transform="translate(-135.342 -259.236)" fill="#4c1a31"/>
            <path id="Path_250" data-name="Path 250" d="M159.043,300.633a2.88,2.88,0,0,0,1.775,1.882,3.175,3.175,0,0,0,2.543-.164C163.151,301.471,161.2,299.478,159.043,300.633Z" transform="translate(-135.871 -269.559)" fill="#ff99c3"/>
            <path id="Path_251" data-name="Path 251" d="M162.147,268.77s-.734-.815-1.456-.549c-.7.258-.857,1.715-.857,1.715s-.609-2.01.589-2.475C161.447,267.065,162.044,268.234,162.147,268.77Z" transform="translate(-136.244 -250.239)" fill="#3f332d"/>
            <path id="Path_252" data-name="Path 252" d="M179.969,266.241s.463-.89,1.154-.691.953,1.181.953,1.181.019-2.114-1.062-2.1S179.949,266.126,179.969,266.241Z" transform="translate(-148.156 -248.624)" fill="#3f332d"/>
            <path id="Path_253" data-name="Path 253" d="M159.151,258.37c-.23.34-.774-.04-1.3.256a2.449,2.449,0,0,0-1.172,1.812s0-1.759.909-2.359C158.565,257.432,159.368,258.051,159.151,258.37Z" transform="translate(-134.482 -244.61)" fill="#564032"/>
            <path id="Path_254" data-name="Path 254" d="M177.017,255.191c.4.213.5-.5,1.254-.447a1.792,1.792,0,0,1,1.382.987s-.406-1.574-1.676-1.474C176.871,254.343,176.818,255.085,177.017,255.191Z" transform="translate(-146.372 -242.53)" fill="#564032"/>
            <path id="Path_255" data-name="Path 255" d="M137.11,342.3c-1.848,2.869-5.516,7.116-2.449,8.954s6.505-1.008,9.99-4.948l4.076.1s.405,7.787-1.805,11.973c0,0,3.506-1.219,4.742.073a54.322,54.322,0,0,0,8.536-23.321c-.3-1.818-1.642-4.844-3.037-5.782-.85,0-3.15.383-5.234.368a36.194,36.194,0,0,1-5.851-.337c-.395-.175-.708-.275-1.64,1.238s-3.7,4.264-4.728,4.583A34.727,34.727,0,0,1,137.11,342.3Z" transform="translate(-120.86 -286.593)" fill="#24416b"/>
            <path id="Path_256" data-name="Path 256" d="M158.825,319.126s.086,5.336-1.905,9.277c-.849,1.679.233,2.034.852,2.277s1.88-.159,2.337-1.886a19.941,19.941,0,0,0,.137-9.5Z" transform="translate(-134.44 -280.625)" fill="#3f6da5"/>
            <path id="Path_257" data-name="Path 257" d="M184.02,317.046s1.583,5.229.783,9.454c-.341,1.8.769,1.84,1.413,1.9s1.718-.658,1.679-2.4a22.106,22.106,0,0,0-2.626-9.481Z" transform="translate(-150.538 -279.096)" fill="#3f6da5"/>
            <path id="Path_258" data-name="Path 258" d="M196.532,328.764s.823-4.981-1.076-8.666" transform="translate(-157.253 -281.195)" fill="none" stroke="#b24287" stroke-miterlimit="10" stroke-width="0.561"/>
            <path id="Path_259" data-name="Path 259" d="M108.765,272.062s1.631-1.906,1.547-3.661a4.261,4.261,0,0,1,1.295-3.142c.3-.36-2.068-1.189-2.82,2.147,0,0-.189.125-.189-.1,0-1.007.138-3.995-.6-3.883-.9.137-.864,3.593-.864,3.593s-.169.223-.266.032c-.367-.715-1.171-2.739-1.582-2.521s-.092,2.553.017,3.377a.422.422,0,0,1-.14.334s-1.862-1.855-2.21-1.241,1.369,2.982,1.369,2.982a2.641,2.641,0,0,0,2.362,2.715" transform="translate(-102.906 -247.912)" fill="#ffd8bd"/>
            <path id="Path_260" data-name="Path 260" d="M109.916,276.234a3.757,3.757,0,0,1,2.807-2.2" transform="translate(-107.023 -254.145)" fill="none" stroke="#a06e5f" stroke-miterlimit="10" stroke-width="0.561"/>
            <path id="Path_261" data-name="Path 261" d="M122.2,307.852s1.082.818,2.158-.915" transform="translate(-114.234 -273.467)" fill="none" stroke="#a06e5f" stroke-miterlimit="10" stroke-width="0.561"/>
            <path id="Path_262" data-name="Path 262" d="M216.6,274.735a1.9,1.9,0,0,0,2.189-.279" transform="translate(-169.672 -254.394)" fill="none" stroke="#a06e5f" stroke-miterlimit="10" stroke-width="0.561"/>
            <path id="Path_263" data-name="Path 263" d="M201.917,233.481a25.47,25.47,0,0,1-2.631-1.359,4.036,4.036,0,0,0-2.192-.492c-.117.009-.34-2.5,2.756-.855a.348.348,0,0,0,.081-.361,4.186,4.186,0,0,1-.461-1s-.793-2.759-.36-2.906,1.727,1.581,2.02,2.447c0,0,.321.162.366-.136.133-.9.269-2.987.695-2.961.568.035,1.025,2.37,1.033,3.187,0,0,.287.284.413-.058.374-1.016.935-2,1.094-1.931.9.363.094,2.2-.009,2.675s1.258,1.728-.748,3.8" transform="translate(-158.182 -225.853)" fill="#ffd8bd"/>
            <path id="Path_264" data-name="Path 264" d="M205.128,237.758s1.718-.431,2.544.425" transform="translate(-162.933 -232.78)" fill="none" stroke="#a06e5f" stroke-miterlimit="10" stroke-width="0.561"/>
            <path id="Path_265" data-name="Path 265" d="M165.756,400.932s3.535-1.463,6.208-.987c2.31.411,2.122,1.405,2.122,1.405.111,1.1-1.629,2.745-6.986,2.422C166.039,403.707,163.691,402.487,165.756,400.932Z" transform="translate(-139.33 -328.027)" fill="#ff7bc0"/>
            <path id="Path_266" data-name="Path 266" d="M160.993,340.212c-.193.581-.691.939-1.114.8a1,1,0,0,1-.417-1.307c.192-.581.691-.939,1.114-.8A1,1,0,0,1,160.993,340.212Z" transform="translate(-136.073 -292.221)" fill="#ffea6c"/>
            <path id="Path_267" data-name="Path 267" d="M189.492,338.791c-.118.622-.549,1.064-.963.985s-.655-.647-.537-1.27.549-1.064.963-.986S189.609,338.168,189.492,338.791Z" transform="translate(-152.852 -291.421)" fill="#ffea6c"/>
            <path id="Path_268" data-name="Path 268" d="M151.936,370.643s7.013-.414,10.369.275" transform="translate(-131.697 -310.804)" fill="none" stroke="#32378d" stroke-miterlimit="10" stroke-width="0.561"/>
            <path id="Path_269" data-name="Path 269" d="M152.844,242.571a8.188,8.188,0,0,1,.013,5.062,19.761,19.761,0,0,1,7.03-2.425A14.878,14.878,0,0,1,168,245.9a10.743,10.743,0,0,0-5.187-5.006A11.592,11.592,0,0,0,152.844,242.571Z" transform="translate(-132.231 -234.412)" fill="#564032"/>
            <path id="Path_270" data-name="Path 270" d="M132.357,257.239l.78,1.21a.758.758,0,0,0,.958.273l1.4-.658a.74.74,0,0,0,.277-1.132,2.459,2.459,0,0,0-3.083-.784A.749.749,0,0,0,132.357,257.239Z" transform="translate(-120.131 -243.496)" fill="#ff7bc0"/>
            <path id="Path_271" data-name="Path 271" d="M130.75,259.722l-.831-1.1a.688.688,0,0,0-1.144.059,2.624,2.624,0,0,0-.151,2.658.679.679,0,0,0,1.046.215l.947-.763A.784.784,0,0,0,130.75,259.722Z" transform="translate(-117.836 -244.933)" fill="#ff7bc0"/>
            <path id="Path_272" data-name="Path 272" d="M131.774,264.9l-1.389.572a.536.536,0,0,0-.234.818,2.65,2.65,0,0,0,2.691,1.078.543.543,0,0,0,.388-.783l-.769-1.443A.543.543,0,0,0,131.774,264.9Z" transform="translate(-118.842 -248.76)" fill="#ff7bc0"/>
            <path id="Path_273" data-name="Path 273" d="M136.517,262.708l.566,1.524a.555.555,0,0,0,.84.293,2.813,2.813,0,0,0,1.156-2.842.573.573,0,0,0-.8-.457l-1.5.755A.581.581,0,0,0,136.517,262.708Z" transform="translate(-122.62 -246.593)" fill="#ff7bc0"/>
            <path id="Path_274" data-name="Path 274" d="M134.64,262.022a1.03,1.03,0,1,1-1.078-.98A1.03,1.03,0,0,1,134.64,262.022Z" transform="translate(-120.332 -246.516)" fill="#dd459c"/>
            <path id="Path_275" data-name="Path 275" d="M195.978,277.153a20.022,20.022,0,0,1-.561,7.62s-.7,3.627-4.926,7.25" transform="translate(-154.337 -255.977)" fill="none" stroke="#a06e5f" stroke-miterlimit="10" stroke-width="0.561"/>
            <path id="Path_276" data-name="Path 276" d="M174.767,404.356c.064.549-1.59,1.194-3.7,1.44s-3.865,0-3.929-.548,1.591-1.194,3.7-1.441S174.7,403.807,174.767,404.356Z" transform="translate(-140.625 -330.295)" fill="#dd459c"/>
            <path id="Path_277" data-name="Path 277" d="M156.722,271.432s.847.35,1.31-.161l.021.438A.857.857,0,0,1,156.722,271.432Z" transform="translate(-134.508 -252.523)" fill="#3f332d"/>
            <path id="Path_278" data-name="Path 278" d="M157.1,269.632a.887.887,0,0,0,1.155.677l.125-.445S157.52,270.295,157.1,269.632Z" transform="translate(-134.729 -251.561)" fill="#3f332d"/>
            <path id="Path_279" data-name="Path 279" d="M184.5,266.439s.355.276.916-.239c0,0-.246.775-.9.58Z" transform="translate(-150.821 -249.546)" fill="#3f332d"/>
            <path id="Path_280" data-name="Path 280" d="M184.711,268.085a.834.834,0,0,0,.98-.424,1.22,1.22,0,0,1-1.149-.055A1.049,1.049,0,0,0,184.711,268.085Z" transform="translate(-150.844 -250.371)" fill="#3f332d"/>
            <g id="Group_50" data-name="Group 50" transform="translate(27.212 46.387)">
              <path id="Path_281" data-name="Path 281" d="M174.919,340.5a3.094,3.094,0,1,1-3.352-2.24A2.867,2.867,0,0,1,174.919,340.5Z" transform="translate(-168.83 -338.23)" fill="#ffea6c"/>
              <path id="Path_282" data-name="Path 282" d="M173.79,342.33c0,.311-.086.565-.2.566s-.215-.249-.22-.56.086-.565.2-.566S173.786,342.018,173.79,342.33Zm1.822-.591c-.117,0-.208.255-.2.566s.1.562.22.56.207-.255.2-.566S175.729,341.737,175.612,341.739Zm-.98,2.785a1.033,1.033,0,0,0,1.017-1.048l-2.065.031A1.033,1.033,0,0,0,174.633,344.524Z" transform="translate(-171.494 -340.29)" fill="#c6864b"/>
            </g>
            <path id="Path_283" data-name="Path 283" d="M170.948,273.919c.58-.8,2.9-1.843,3.6-.714.628,1.013-1.666,2.321-3,1.806" transform="translate(-142.862 -253.368)" fill="none" stroke="#a06e5f" stroke-miterlimit="10" stroke-width="0.898"/>
            <path id="Path_284" data-name="Path 284" d="M180.262,246.31a8.435,8.435,0,0,0-4-4.368s3.922,1.2,4.485,4.885Z" transform="translate(-145.984 -235.301)" fill="#a08475"/>
            <path id="Path_285" data-name="Path 285" d="M170.692,240.9a8.132,8.132,0,0,1,4.525,4.11S174.195,241.426,170.692,240.9Z" transform="translate(-142.711 -234.688)" fill="#a08475"/>
            <path id="Path_286" data-name="Path 286" d="M188.435,247.816a19.156,19.156,0,0,1,5.327,6.313S192.109,249.494,188.435,247.816Z" transform="translate(-153.13 -238.75)" fill="#a08475"/>
            <path id="Path_287" data-name="Path 287" d="M168.455,241.1a5.429,5.429,0,0,1,2.934,3.163A3.849,3.849,0,0,0,168.455,241.1Z" transform="translate(-141.398 -234.806)" fill="#a08475"/>
            <path id="Path_288" data-name="Path 288" d="M154.908,244.538a6.512,6.512,0,0,1-.263,4.794A11.521,11.521,0,0,0,154.908,244.538Z" transform="translate(-133.288 -236.824)" fill="#a08475"/>
            <path id="Path_289" data-name="Path 289" d="M162.8,241.722a4.479,4.479,0,0,1,2.25,4.007S164.418,242.862,162.8,241.722Z" transform="translate(-138.076 -235.172)" fill="#a08475"/>
            <path id="Path_290" data-name="Path 290" d="M136.457,269.98a14.5,14.5,0,0,0,5.2-8.712S141.052,267.9,136.457,269.98Z" transform="translate(-122.608 -246.649)" fill="#a08475"/>
            <path id="Path_291" data-name="Path 291" d="M109.682,334.719s4.438,3.091,9.383-4.972C119.065,329.747,114.965,338.522,109.682,334.719Z" transform="translate(-106.885 -286.861)" fill="#a08475"/>
          </g>
          <g id="Group_52" data-name="Group 52" transform="translate(85.291 75.61)">
            <path id="Path_292" data-name="Path 292" d="M281.1,384.352c-.047.186,1.83.514,3.007.48a7.273,7.273,0,0,0,3.433-.7c0-.109-1.065-.746-3.235-.823A4.5,4.5,0,0,0,281.1,384.352Z" transform="translate(-261.222 -310.26)" fill="#1d2749"/>
            <path id="Path_293" data-name="Path 293" d="M283.926,384.318l.746-1.369,3.165.082-.587,1.3Z" transform="translate(-262.885 -310.05)" fill="#657496"/>
            <path id="Path_294" data-name="Path 294" d="M243.693,321.377c.187-.717.458-3.561-4.131-4.127-4.4-.543-6.582,1.576-6.609,3.228-.04,2.44,1.556,2.914,5.632,2.64C241.409,322.927,243.362,322.651,243.693,321.377Z" transform="translate(-232.952 -271.419)" fill="#1c273a"/>
            <path id="Path_295" data-name="Path 295" d="M284.6,385.807c-1.1.082-3.543-.263-4.63.223-.677.3-2.944,2.579-2.428,3.5s3.558,2.188,7.948,1.441c3.794-.646,4.8-1.524,4.342-2.661C289.336,387.066,287.656,385.581,284.6,385.807Z" transform="translate(-259.092 -311.702)" fill="#1c273a"/>
            <path id="Path_296" data-name="Path 296" d="M290.187,391.933c-.491-.911-2.021-1.062-7.044-.647-1.422.118-4.9.583-3.808,1.574,1.03.936,3.781,1.267,5.271,1.138S290.887,393.233,290.187,391.933Z" transform="translate(-260.066 -314.817)" fill="#0f151e"/>
            <path id="Path_297" data-name="Path 297" d="M261.653,322.746s-3.108,1.656-3.849,1.924-4.752,1.214-4.752,1.214-.94-2.679-3.091-2.808-5.047,1.112-3.724,4.526a11.219,11.219,0,0,0,5.449,6.056c4.313,1.706,9.839-1.516,9.839-1.516l3.187,2.4a22.278,22.278,0,0,1-1.385,7.369c-1.356,3.137-2.861,6.8-2.861,6.8a7.2,7.2,0,0,1,3.031-.841,5.717,5.717,0,0,1,3.388.719s2.934-1.834,4.887-8.245-.266-10.363-.266-10.363-2.966-1.422-5.47-2.867A15.359,15.359,0,0,1,261.653,322.746Z" transform="translate(-240.557 -274.698)" fill="#24416b"/>
            <path id="Path_298" data-name="Path 298" d="M333.657,320.129s-.918.037-4.379-2.318a12.22,12.22,0,0,1-5.1-8.391l-2.437,5.971s.3,2.045,3.312,4.246a17.736,17.736,0,0,0,8.246,3.487" transform="translate(-285.092 -266.872)" fill="#ffd8bd"/>
            <path id="Path_299" data-name="Path 299" d="M289.59,226.392s-5.1,1.288-7.794,5.475A9.787,9.787,0,0,1,283,231.2s-2.163,2.632-2.544,4.361l.921.878s2.805-7.767,9.79-9.581S289.59,226.392,289.59,226.392Z" transform="translate(-260.85 -217.834)" fill="#564032"/>
            <path id="Path_300" data-name="Path 300" d="M296.144,225.114c-10.144.3-15.652,6.535-16.516,13.449s3.114,15.69,12.017,16.385c9.658.753,19.211-5.5,20.017-14.06a13.309,13.309,0,0,0-6.174-12.745C302.726,226.252,300.388,224.987,296.144,225.114Z" transform="translate(-260.293 -217.361)" fill="#ffd8bd"/>
            <path id="Path_301" data-name="Path 301" d="M278.254,250.543a2.115,2.115,0,0,0-.469-1.158c-.558-.477-1.823-.482-2.237,1.46-.651,3.049.768,5.316,1.858,4.3" transform="translate(-257.869 -231.463)" fill="#ffd8bd"/>
            <path id="Path_302" data-name="Path 302" d="M318.133,219.91s-6.632-5.44-12.813-5.391a18.462,18.462,0,0,0-4.406.791s-4.419-3.7.606-8.155c0,0-.981,3.952,5.056,3.546-1.305-.024-4.259-1.186-1.223-4.356,0,0-.85,1.866,2.222,2.83,2.883.9,7.141.845,10.14,5.574a3,3,0,0,0-.682-1.739s3.406,1.517,3.753,6.949a1.774,1.774,0,0,0,.45-1.5,1.905,1.905,0,0,1,.4,1.72,2.486,2.486,0,0,1,2.47-.466s-1.686.43-1.874,1.394c0,0,1.524-.247,2.341,1.772a2.585,2.585,0,0,0-2.037-.859c1.008.88,2.367,3.484,1.934,7.094a13.523,13.523,0,0,1-4.774,9.358l.471-1.066a7.4,7.4,0,0,1-1.481,1.143s3.923-3.55,2.883-6.34c-.85-2.283-3.219-1.41-4.377-.022a18.854,18.854,0,0,1-.849-7.764C316.885,220.774,318.133,219.91,318.133,219.91Z" transform="translate(-271.805 -206.345)" fill="#564032"/>
            <path id="Path_303" data-name="Path 303" d="M290.326,294.646s-.656.687-3.5,3.749c-2.532,2.726-4.5,4.892-7.2,6.271a9.457,9.457,0,0,0,2.327,5.472c5.888,6.75,12.178,5.752,12.178,5.752s8.682-10.715,6.344-19.161C298.677,290.25,290.326,294.646,290.326,294.646Z" transform="translate(-260.357 -257.341)" fill="#d11c5d"/>
            <path id="Path_304" data-name="Path 304" d="M329.436,287.76c.177,0,2.251.436,1.611,4-.607,3.382-2.45,3.259-2.711,3.262-.673.006-2.009-1.6-1.231-4.33C327.845,288.094,328.88,287.762,329.436,287.76Z" transform="translate(-288.101 -254.153)" fill="#681239"/>
            <path id="Path_305" data-name="Path 305" d="M334.487,273.265s-2.309,1.94-9.222,4.073a70.569,70.569,0,0,1-15.335,3.1c-2.84.291-7.265,5.42-2.218,5.7,6.16.342,14-2.3,19.554-5a29.648,29.648,0,0,0,6.938-4.593" transform="translate(-275.502 -245.642)" fill="#ffd8bd"/>
            <path id="Path_306" data-name="Path 306" d="M315.767,287.749s-2.35.838-2.427,4.189c-.064,2.79,1.531,3.1,1.531,3.1s-4.735.006-7.914-.054c-2.151-.041-3.094.448-3.277-1.263-.315-2.941,2.575-4.3,4.042-4.686C309.9,288.466,314.123,288.523,315.767,287.749Z" transform="translate(-274.47 -254.147)" fill="#d11c5d"/>
            <path id="Path_307" data-name="Path 307" d="M258.265,330.613a4.83,4.83,0,0,1,2.445-1.317s1.225-.25,2.255-.532M274.009,339.7a66.232,66.232,0,0,0-5.611-4.216m-10.043-1.342s-.828,2.068.758,2.514m16.091,7.979s1.526,1.608,2.644.743" transform="translate(-247.742 -278.231)" fill="none" stroke="#1d2749" stroke-linecap="round" stroke-linejoin="round" stroke-width="0.561"/>
            <path id="Path_308" data-name="Path 308" d="M307.593,306.553a69.17,69.17,0,0,1,9.608-1.08" transform="translate(-276.783 -264.555)" fill="none" stroke="#681239" stroke-miterlimit="10" stroke-width="0.842"/>
            <path id="Path_309" data-name="Path 309" d="M372.666,267.589a8.972,8.972,0,0,1,3.417-4.787c2.744-1.653,4.845-1.348,5-.407.119.723-.68,1.379-1.446,1.4.265.068,1.215.4.926,1.226a2.649,2.649,0,0,1-1.4,1.58s1.734-.328,1.017,1.406-2.585,3.015-3.459,2.191a4.946,4.946,0,0,1-1.011.541c-1.891.705-3.1.415-3.244-.895" transform="translate(-314.879 -238.807)" fill="#ffd8bd"/>
            <path id="Path_310" data-name="Path 310" d="M387.117,267.532s-.61-1.568-3.487.077" transform="translate(-321.433 -241.879)" fill="none" stroke="#a06e5f" stroke-miterlimit="10" stroke-width="0.561"/>
            <path id="Path_311" data-name="Path 311" d="M386.706,273.981s.256-1.114-3.334.16" transform="translate(-321.281 -245.797)" fill="none" stroke="#a06e5f" stroke-miterlimit="10" stroke-width="0.561"/>
            <path id="Path_312" data-name="Path 312" d="M372.972,280.729c.578,1.353,3.956.5,5.764-1.678" transform="translate(-315.174 -249.039)" fill="none" stroke="#a06e5f" stroke-miterlimit="10" stroke-width="0.561"/>
            <path id="Path_313" data-name="Path 313" d="M347.91,334.237a6.512,6.512,0,0,1,2.2-.493c1.074-.014,2.194-.6,2.427-.155.256.49-.767.925-.767.925s2.158-.682,2.324.121c.151.727-1.817,1.02-1.712,1.357s2.917-.411,2.861.828c-.037.808-3.367.682-3.658,1.354-.2.454.653.736.939,1.559.224.646-.02,1.2-.4,1.183-.121,0-.569-.844-1.27-.954a4.556,4.556,0,0,1-2.387-1,6.631,6.631,0,0,1-1.4-2.479" transform="translate(-299.964 -280.967)" fill="#ffd8bd"/>
            <path id="Path_314" data-name="Path 314" d="M297.519,257.764s.455,2.484,3.5,2.2c3.341-.31,5.869-3.406,5.869-3.406S307,265.02,302,265.9C297.784,266.639,297.519,257.764,297.519,257.764Z" transform="translate(-270.867 -235.832)" fill="#4c1a31"/>
            <path id="Path_315" data-name="Path 315" d="M310.715,271.68a.306.306,0,0,0-.055-.128c-.515-.644-2.165-.611-3.528.769a2.183,2.183,0,0,0-.6,2.175,2.712,2.712,0,0,0,.717-.032A4.9,4.9,0,0,0,310.715,271.68Z" transform="translate(-276.108 -244.398)" fill="#ff99c3"/>
            <path id="Path_316" data-name="Path 316" d="M326.509,231.333a.979.979,0,0,1,1.006.724,2.453,2.453,0,0,1-.042,1.258s1.116-1.5.091-2.323C326.709,230.307,326.1,231.267,326.509,231.333Z" transform="translate(-287.814 -220.674)" fill="#564032"/>
            <path id="Path_317" data-name="Path 317" d="M311.411,227.575c.264-.1.123-.614-.461-.7a2.412,2.412,0,0,0-1.956.905,4.2,4.2,0,0,1,1.517-.392C311.034,227.419,311.109,227.689,311.411,227.575Z" transform="translate(-277.605 -218.391)" fill="#564032"/>
            <path id="Path_318" data-name="Path 318" d="M305.426,237.338c-.424.675-1.145.986-1.611.693s-.5-1.077-.075-1.752,1.145-.986,1.61-.693S305.85,236.663,305.426,237.338Z" transform="translate(-274.346 -223.452)" fill="#3f332d"/>
            <path id="Path_319" data-name="Path 319" d="M306.541,236.936c-.18.286-.483.419-.678.3s-.207-.453-.028-.739.483-.418.678-.3S306.72,236.65,306.541,236.936Z" transform="translate(-275.676 -223.848)" fill="#fff"/>
            <path id="Path_320" data-name="Path 320" d="M320.61,241.478c-.424.676-1.146.986-1.611.693s-.5-1.077-.075-1.752,1.145-.985,1.61-.693S321.034,240.8,320.61,241.478Z" transform="translate(-283.262 -225.882)" fill="#3f332d"/>
            <path id="Path_321" data-name="Path 321" d="M321.665,241.136c-.2.312-.518.462-.72.335s-.207-.482-.011-.794.518-.461.72-.335S321.861,240.824,321.665,241.136Z" transform="translate(-284.532 -226.282)" fill="#fff"/>
            <path id="Path_322" data-name="Path 322" d="M302.4,246.758c-.153-.765-2.208-3.333-3.514-1.57-1.066,1.439,1.187,3,2.454,2.818" transform="translate(-271.504 -228.799)" fill="none" stroke="#a06e5f" stroke-miterlimit="10" stroke-width="0.842"/>
            <path id="Path_323" data-name="Path 323" d="M344.42,291.343s.3,1.377,1.311,1.56" transform="translate(-298.408 -256.257)" fill="none" stroke="#a06e5f" stroke-miterlimit="10" stroke-width="0.561"/>
            <path id="Path_324" data-name="Path 324" d="M282.431,240.759a14.716,14.716,0,0,0-2.31,13.442" transform="translate(-260.259 -226.553)" fill="none" stroke="#a06e5f" stroke-linecap="round" stroke-linejoin="round" stroke-width="0.561"/>
            <path id="Path_325" data-name="Path 325" d="M340.7,267.881c.215-.358.645-.9.645-.9,1.157-1.389,3.526-2.261,4.377.022,1.04,2.79-2.883,6.34-2.883,6.34s-1.808,1.42-2.594-.455" transform="translate(-295.953 -241.138)" fill="none" stroke="#a06e5f" stroke-linecap="round" stroke-linejoin="round" stroke-width="0.561"/>
            <path id="Path_326" data-name="Path 326" d="M325.949,215.8a10.049,10.049,0,0,1,7.464,5.672A15.122,15.122,0,0,0,325.949,215.8Z" transform="translate(-287.561 -211.894)" fill="#a08475"/>
            <path id="Path_327" data-name="Path 327" d="M344.87,240.06s-2.445.987-2.176,6.6C342.695,246.656,343.07,242.407,344.87,240.06Z" transform="translate(-297.383 -226.143)" fill="#a08475"/>
            <path id="Path_328" data-name="Path 328" d="M354.681,244.794a8.389,8.389,0,0,1,1.242,6.548S357.7,247.258,354.681,244.794Z" transform="translate(-304.433 -228.923)" fill="#a08475"/>
            <path id="Path_329" data-name="Path 329" d="M303.714,210.585s-.345,3.668,4.154,3.22C307.868,213.805,302.728,215.385,303.714,210.585Z" transform="translate(-274.431 -208.835)" fill="#a08475"/>
          </g>
          <path id="Path_330" data-name="Path 330" d="M44.18,458.231s34.629-61.9,85.03-61.9c61.261,0,84.889,61.9,84.889,61.9" transform="translate(-39.811 -241.231)" fill="#a7e557"/>
          <path id="Path_331" data-name="Path 331" d="M170.554,423.866s-2.217-2.771-1.108-3.509,1.293,1.97,1.293,1.97,1.658-1.819,2.278-.923C173.571,422.2,170.554,423.866,170.554,423.866Zm-6.588-13.36c-.812-.625-1.97,1.17-1.97,1.17s-.061-1.785-1.046-1.539.8,3.14.8,3.14C162.859,412.6,164.767,411.122,163.967,410.506Zm22.286,3.817c-.185-.862-2.093-.246-2.093-.246s.308-1.786-.616-1.847-.185,3.14-.185,3.14S186.438,415.185,186.253,414.323Zm-78.984,22.93c-.874-.117-.938,1.887-.938,1.887s-1.577-.892-1.946-.044,2.893,1.234,2.893,1.234S108.142,437.371,107.269,437.253Zm44.877-20.96c-.862-.369-1.477,1.293-1.477,1.293s-1.6-1.293-1.909-.308,2.709,1.908,2.709,1.908S153.008,416.663,152.146,416.294Zm63.2,20.119c-.417-.84-1.963.026-1.963.026s-.381-2.022-1.254-1.472.825,3.209.825,3.209S215.76,437.253,215.344,436.413ZM146.3,426.082c-.616-.308-1.355,1.231-1.355,1.231s-.615-1.231-1.662-.677,2.031,2.216,2.031,2.216C146.421,427.437,146.914,426.39,146.3,426.082Zm-10.528-12.99c-.923-.554-1.785,1.97-1.785,1.97s-.8-1.478-1.416-.677,2.155,2.216,2.155,2.216S136.694,413.646,135.77,413.092Zm93.306,19.765c-.294-1.036-2.65.214-2.65.214s.428-1.625-.569-1.463.054,3.091.054,3.091S229.371,433.893,229.077,432.857Zm-103.034-6.9c-.8-.061-.492,2.093-.492,2.093s-2.032-1.046-1.97.062,2.709.493,2.709.493S126.844,426.021,126.043,425.959Zm72.585-1.477c-.246-.8-2.093.308-2.093.308s.985-1.478-.246-1.662-.369,3.078-.369,3.078S198.874,425.282,198.628,424.482Zm-86.15,4.16s.658-3.31-.559-3.049-.143,1.674-.143,1.674-1.912-.992-2.108-.178S112.478,428.641,112.478,428.641ZM212.849,423.2c-.246-.923-2.216,0-2.216,0s.615-1.478-.492-1.785-.369,3.263-.369,3.263S213.1,424.123,212.849,423.2Z" transform="translate(-72.147 -250.391)" fill="#287264" opacity="0.5"/>
        </g>
      </g>
    </g>
  </g>
</svg>
